<svg xmlns="http://www.w3.org/2000/svg" viewBox="0 0 13 26" width="13" height="26">
	<style>
		tspan { white-space:pre }
		.shp0 { fill: #ffffff } 
	</style>
	<path id="facebook" class="shp0" d="M4.08,1.67c-1.46,1.49 -1.51,4.4 -1.63,7.35c-0.84,0 -1.51,0 -2.35,0c0,1.48 0,2.55 0,4.03c0.87,0 1.51,0 2.38,0c0,4.2 0,8.81 0,12.75c1.78,0 5.58,0 5.58,0v-12.8c0,0 2.07,0 3.22,0c0.25,-1.35 0.49,-2.41 0.84,-3.98c-1.33,0 -2.7,0 -4.03,0c0.04,-1.34 -0.21,-3.2 0.21,-3.84c0.76,-1.16 3.8,-0.86 3.8,-0.86c0,0 0,-2.64 0,-4.12c-4.79,0 -6.36,-0.2 -8.01,1.47z" />
</svg>