<svg xmlns="http://www.w3.org/2000/svg" viewBox="0 0 21 26" width="21" height="26">
	<style>
		tspan { white-space:pre }
		.shp0 { fill: #f38181 } 
	</style>
	<path id="pinterest" class="shp0" d="M10.37,18.1c0.54,0.31 1.19,0.52 1.98,0.58c0.81,0.06 1.58,-0.09 2.24,-0.28c0.67,-0.2 1.26,-0.49 1.75,-0.81c2.02,-1.32 3.36,-3.63 3.84,-6.46c0.13,-0.76 0.31,-1.51 0.31,-2.37c0,-0.85 -0.2,-1.6 -0.4,-2.29c-0.39,-1.33 -1,-2.39 -1.83,-3.31c-0.81,-0.89 -1.77,-1.61 -2.98,-2.15c-1.14,-0.51 -2.66,-0.89 -4.33,-0.81c-0.57,0.03 -1.1,0.06 -1.61,0.13c-1.53,0.22 -2.79,0.69 -3.91,1.35c-1.45,0.86 -2.64,2.06 -3.46,3.56c-0.39,0.72 -0.75,1.61 -0.94,2.58c-0.2,1 -0.2,2.2 0,3.24c0.32,1.7 1.12,3.01 2.42,3.73c0.17,0.1 0.43,0.25 0.64,0.24c0.5,-0.01 0.51,-0.6 0.62,-1.02c0.09,-0.35 0.3,-0.84 0.12,-1.16c-0.13,-0.23 -0.33,-0.4 -0.46,-0.6c-0.42,-0.63 -0.68,-1.45 -0.68,-2.5c0,-1.36 0.33,-2.46 0.84,-3.41c0.96,-1.82 2.6,-3.14 4.91,-3.53c1.28,-0.22 2.71,-0.11 3.75,0.23c1.05,0.34 1.91,0.95 2.51,1.71c0.64,0.8 1.04,1.83 1.13,3.12c0.05,0.7 0,1.4 -0.07,2.01c-0.21,1.9 -0.76,3.5 -1.67,4.69c-0.57,0.74 -1.42,1.53 -2.65,1.57c-0.7,0.02 -1.2,-0.15 -1.62,-0.46c-0.41,-0.3 -0.71,-0.7 -0.85,-1.28c-0.15,-0.63 0.03,-1.23 0.19,-1.81c0.32,-1.18 0.67,-2.09 0.94,-3.31c0.12,-0.54 0.23,-1.28 0.08,-1.89c-0.14,-0.58 -0.43,-0.99 -0.87,-1.25c-0.42,-0.25 -1.11,-0.35 -1.73,-0.13c-0.98,0.34 -1.62,1.28 -1.89,2.34c-0.16,0.6 -0.21,1.25 -0.14,1.94c0.06,0.61 0.21,1.12 0.43,1.7c0.03,0.08 -0.06,0.31 -0.09,0.45c-0.49,2.08 -0.95,4.1 -1.44,6.16c-0.25,1.08 -0.53,2.17 -0.59,3.47c-0.05,1.14 -0.15,2.32 -0.01,3.34c0.03,0.19 0.04,0.32 0.17,0.34c0.17,0.04 0.05,0.3 0.63,-0.36c0.87,-1 1.52,-2.24 2.04,-3.52c0.31,-0.77 0.5,-1.63 0.72,-2.47c0.22,-0.85 0.43,-1.73 0.64,-2.56c0.32,0.57 0.78,0.94 1.32,1.24z" />
</svg>