<svg xmlns="http://www.w3.org/2000/svg" viewBox="0 0 26 22" width="26" height="22">
	<style>
		tspan { white-space:pre }
		.shp0 { fill: #f38181 } 
	</style>
	<path id="twitter" class="shp0" d="M16.87,0.68c-0.41,0.09 -0.81,0.2 -1.17,0.36c-1.49,0.65 -2.51,1.85 -2.97,3.53c-0.19,0.67 -0.26,1.78 -0.03,2.47c-0.84,0 -1.65,-0.13 -2.36,-0.31c-2.77,-0.68 -4.5,-1.6 -6.42,-3.1c-0.56,-0.44 -1.12,-0.94 -1.56,-1.49c-0.14,-0.18 -0.37,-0.34 -0.47,-0.55c-0.01,0 -0.02,-0.01 -0.03,-0.01c-0.22,0.41 -0.43,0.86 -0.56,1.37c-0.52,2 0.3,3.68 1.18,4.76c0.27,0.33 0.7,0.54 0.96,0.84c0.01,0 0.02,0 0.03,0c-0.2,0.07 -0.54,-0.03 -0.72,-0.06c-0.41,-0.08 -0.76,-0.16 -1.1,-0.31c-0.18,-0.08 -0.36,-0.17 -0.54,-0.26c-0.01,2.21 1.11,3.64 2.47,4.5c0.45,0.28 1.07,0.65 1.72,0.69c-0.35,0.29 -1.83,0.16 -2.34,0.1c0.64,1.66 1.63,2.76 3.33,3.36c0.44,0.15 0.97,0.29 1.56,0.28c-0.31,0.37 -0.98,0.67 -1.42,0.93c-0.91,0.53 -1.96,0.88 -3.15,1.14c-0.48,0.1 -0.98,0.08 -1.5,0.17c-0.57,0.09 -1.17,-0.05 -1.68,-0.06c0.15,0.09 0.31,0.19 0.46,0.28c0.47,0.29 0.96,0.54 1.49,0.77c0.95,0.42 1.97,0.73 3.09,1.01c2.26,0.56 5.46,0.31 7.43,-0.31c5.5,-1.71 8.98,-5.72 10.29,-11.61c0.23,-1.01 0.26,-2.17 0.24,-3.37c0.27,-0.22 0.55,-0.43 0.82,-0.65c0.68,-0.54 1.31,-1.3 1.78,-2.04c0,0 0,-0.01 0,-0.01c-0.89,0.28 -1.83,0.79 -2.97,0.8c0,0 0,-0.01 0,-0.01c0.22,-0.09 0.4,-0.27 0.58,-0.41c0.8,-0.62 1.32,-1.43 1.7,-2.47c-0.22,0.12 -0.44,0.24 -0.65,0.36c-0.67,0.34 -1.81,0.83 -2.69,0.91c-1.03,-0.94 -2.12,-1.68 -4.15,-1.65c-0.21,0.02 -0.43,0.05 -0.64,0.08z" />
</svg>